<svg width="20" height="20" viewBox="0 0 20 20" fill="none" xmlns="http://www.w3.org/2000/svg">
<path d="M5.89396 15.2427C6.11068 15.2427 6.29086 15.1698 6.43449 15.024C6.57813 14.8783 6.64995 14.6977 6.64995 14.4822V9.03258C6.64995 8.81713 6.57665 8.63653 6.43006 8.49079C6.28345 8.34504 6.1018 8.27217 5.88509 8.27217C5.66837 8.27217 5.4882 8.34504 5.34456 8.49079C5.20093 8.63653 5.12911 8.81713 5.12911 9.03258V14.4822C5.12911 14.6977 5.20241 14.8783 5.349 15.024C5.49561 15.1698 5.67726 15.2427 5.89396 15.2427ZM10.1016 15.2427C10.3183 15.2427 10.4985 15.1698 10.6421 15.024C10.7858 14.8783 10.8576 14.6977 10.8576 14.4822V5.7121C10.8576 5.49665 10.7843 5.31605 10.6377 5.1703C10.4911 5.02456 10.3094 4.95168 10.0927 4.95168C9.87601 4.95168 9.69584 5.02456 9.5522 5.1703C9.40857 5.31605 9.33675 5.49665 9.33675 5.7121V14.4822C9.33675 14.6977 9.41005 14.8783 9.55664 15.024C9.70325 15.1698 9.8849 15.2427 10.1016 15.2427ZM14.3092 15.2427C14.526 15.2427 14.7061 15.1698 14.8498 15.024C14.9934 14.8783 15.0652 14.6977 15.0652 14.4822V12.2517C15.0652 12.0362 14.9919 11.8556 14.8453 11.7099C14.6987 11.5641 14.5171 11.4913 14.3004 11.4913C14.0837 11.4913 13.9035 11.5641 13.7598 11.7099C13.6162 11.8556 13.5444 12.0362 13.5444 12.2517V14.4822C13.5444 14.6977 13.6177 14.8783 13.7643 15.024C13.9109 15.1698 14.0925 15.2427 14.3092 15.2427ZM2.493 19.2222C2.08745 19.2222 1.73258 19.0701 1.42842 18.7659C1.12425 18.4618 0.972168 18.1069 0.972168 17.7013V2.493C0.972168 2.08745 1.12425 1.73258 1.42842 1.42842C1.73258 1.12425 2.08745 0.972168 2.493 0.972168H17.7013C18.1069 0.972168 18.4618 1.12425 18.7659 1.42842C19.0701 1.73258 19.2222 2.08745 19.2222 2.493V17.7013C19.2222 18.1069 19.0701 18.4618 18.7659 18.7659C18.4618 19.0701 18.1069 19.2222 17.7013 19.2222H2.493ZM2.493 17.7013H17.7013V2.493H2.493V17.7013Z" fill="#333333"/>
</svg>
